<?xml version="1.0" encoding="UTF-8"?><svg id="Calque_2" xmlns="http://www.w3.org/2000/svg" viewBox="0 0 387.17 386.66"><defs><style>.cls-1{fill:#fff;}</style></defs><g id="Calque_2-2"><g id="Calque_1-2"><path class="cls-1" d="m310.09,49.06c-17.3-14.2-36.4-24.8-57.1-31.9-21.3-7.2-43-10.5-65.3-9.8-21.2.7-41.7,5-61.6,12.8-1.7.7-3.5,1.4-5.2,2.2-29.7,13-54.4,32.4-74.1,58.3,0,.1-.1.1-.1.1h-10.5s0-.1.1-.2c18.7-25.9,42.4-46,70.9-60.3,1.7-.9,3.4-1.7,5.1-2.5C134.89,7.36,158.59,1.56,183.19.26c33.5-1.7,65.3,4.9,95.4,19.7,1.7.8,3.4,1.7,5,2.6,28.4,15.2,51.7,36.2,69.7,62.8,9.8,14.4,17.4,30,23,46.8,5.9,17.7,9.2,35.9,9.8,54.6v.1h-8.5v-.3c-1.1-29.1-8.3-56.3-21.7-81.5-10.5-19.9-24.4-37.4-41.7-52.6-1.2-1-2.7-2.2-4.1-3.4h0Z"/><path class="cls-1" d="m91.29,77.86c-1.2-.9-1.9-2.1-2.1-3.4s.1-2.4.8-3.5c.5-.8,1.2-1.3,2-1.7.8-.4,1.6-.5,2.5-.4,1.8.2,3.2,1.1,4.1,2.9l-1.2.6c-.8-1.6-2.1-2.3-3.8-2.2-.7.1-1.4.3-2,.8-.5.5-.9,1.1-1.1,1.8-.2.8-.2,1.6.1,2.3.3.7.8,1.3,1.5,1.9.7.5,1.4.9,2.2,1.2,1.6.6,2.9,1.3,4,2.3,2.5,2.1,3.2,4.7,2.3,7.7-.5,1.5-1.5,2.8-3.1,3.7-1.3.8-2.8,1.1-4.3.9-1.4-.2-2.7-.8-3.8-1.7-1.1-1-1.9-2.3-2.2-3.9v-.2c.3-.2.9-.3,1.2-.4,0,0,.8,2.3,1.6,3.1.7.8,1.6,1.3,2.7,1.6,1.7.4,3.2.2,4.7-.9.8-.6,1.5-1.4,1.9-2.3s.5-1.9.4-2.8c-.1-1.5-.8-2.7-2-3.8-.6-.5-1.2-.9-1.8-1.3-.2-.1-.9-.4-2-.9-.9-.2-1.8-.7-2.6-1.4h0Z"/><path class="cls-1" d="m61.19,91.36h8.8v1.3h-10.2v-23.5h1.3v.2l.1,22h0Z"/><path class="cls-1" d="m32.99,132.16s0-.1.1-.2l26.6-34.8.1-.1h5.3s-.1.1-.2.3l-31.8,41.7c-.1.1-.1.2-.1.2l-24.7-32.4v-7l24.7,32.3h0Z"/><path class="cls-1" d="m61.69,108.26l4.2-5.7v68.8l-4.2.1v-63.2h0Z"/><path class="cls-1" d="m262.59,138.76c1.1,1.1,2.6,2.2,4.3,3.1.2.1,1.3.6,3.2,1.3,2.2.9,4.3,2.1,6.3,3.8,2.4,1.9,4,4.3,4.9,7,.5,1.8.7,3.6.5,5.6-.3,3.5-1.9,6.5-4.6,8.9-2.9,2.5-6.2,3.7-10.1,3.5-3.1-.2-5.8-1.3-8.1-3.3-2.6-2.3-4.2-5-4.8-8.1v-.2l2.5-.9v.2c.4,2.6,1.5,4.7,3.2,6.4,3.3,3.1,7.1,4.1,11.4,2.8,2.1-.6,3.9-1.9,5.4-3.7,1.5-1.9,2.3-4,2.5-6.4.1-2.1-.3-4-1.2-5.7-.7-1.4-1.9-2.8-3.6-4.2-1.9-1.6-4-2.8-6.2-3.5-2.7-.9-5-2.2-7-4-1-.9-1.8-2-2.4-3.2-.5-1.2-.8-2.5-.9-3.8-.1-2,.4-3.8,1.4-5.4,1-1.7,2.4-2.9,4.1-3.8,1.8-.9,3.8-1.2,5.9-.9,2.4.4,4.4,1.5,6.1,3.4.8.9,1.4,1.9,1.7,2.9l-2.3.9c-1.3-2.8-3.3-4.3-6-4.6-1.7-.2-3.2.1-4.6.9-1.5.9-2.6,2.2-3.2,3.9-.6,1.8-.5,3.5.1,5.2.4.6.9,1.3,1.5,1.9h0Z"/><path class="cls-1" d="m88.69,147.96c0,.1-.1.2-.1.2,5.6-.1,11.4-.1,17.1.1l.9,2.6-19-.1s0,.1-.1.2l-7.4,20.2c0,.1-.1.2-.1.2l-2.8.1s0-.1.1-.2l17.1-46.6c0-.1.1-.2.1-.2h2.7v.2l7.6,20.9h-2.8s0-.1-.1-.1l-6.2-16.9-7,19.4h0Z"/><path class="cls-1" d="m145.29,166.26c2.6-2.1,4.1-4.7,4.6-7.8.1-.7.2-2.6.2-5.6v-28.5h2.6v.2c.1,9.2.1,18.3.1,27.3v5.6c-.4,4.8-2.6,8.6-6.7,11.5-2.5,1.8-5.3,2.7-8.4,2.7-4.6,0-8.5-1.7-11.6-5.1-2.7-2.9-4-6.4-4-10.4v-31.9h2.7v30.5c0,2.1.1,3.6.4,4.6.8,3.1,2.6,5.6,5.5,7.5,2.2,1.5,4.7,2.1,7.4,2,2.7.1,5.1-.9,7.2-2.6h0Z"/><path class="cls-1" d="m178.39,166.16l14.6-41.5c.1-.2.1-.3.1-.3h2.8s-.1.1-.1.2l-16.8,46.7h-1.7v-.1l-16.7-46.5c0-.1-.1-.2-.1-.2h2.8s.1.1.1.3l14.6,41.4c.1.3.2.3.4,0h0Z"/><path class="cls-1" d="m206.79,150.86l-7.6,20.3c0,.1-.1.1-.1.1l-2.8.1,17.1-46.8c.1-.1.1-.2.1-.2h2.7s0,.1.1.2l7.6,21h-2.8l-.1-.1-6.1-16.7c-.1-.2-.1-.3-.1-.3l-7.1,19.5c0,.1-.1.2-.1.2l17.1.1v.1l.9,2.4h-18.9c.2-.1.1,0,.1.1h0Z"/><path class="cls-1" d="m104.79,153.26h2.8l6.6,18.1h-2.8v-.1l-6.6-18h0Z"/><path class="cls-1" d="m233.29,171.26h-2.7l-6.6-18.1h2.8s0,.1.1.2l6.4,17.9h0Z"/><path class="cls-1" d="m55.49,329.06c-4.9-5-9.5-10.1-13.6-15.4-21.3-26.9-34.5-57.2-39.7-90.9C0,208.76-.51,194.36.49,179.56l9.3-.1c-.9,13.9-.3,27.7,1.7,41.4.3,1.8.6,3.7.9,5.6,5.5,29.2,17.2,55.6,35.1,79.1,13.1,17.2,28.9,31.7,47.3,43.5,1.6,1,3.2,2,4.8,3,24.5,14.5,50.8,22.9,79.1,25.2,14.2,1.2,28.5.6,42.9-1.6,1.9-.3,3.7-.6,5.6-1,31.6-6.1,59.7-19.4,84.3-39.9,1.5-1.2,2.9-2.5,4.3-3.7,19.7-17.7,35-38.6,45.8-62.9h9.6c-6.1,14.4-13.7,27.8-22.9,40.2-1.1,1.5-2.2,3-3.4,4.5-20.4,25.8-45.7,45.2-75.9,58.3-1.7.8-3.5,1.5-5.2,2.1-22.8,8.9-46.4,13.4-70.6,13.4-26.8,0-52.5-5.3-77.2-16-1.7-.8-3.4-1.5-5.2-2.3-20.6-9.7-39.1-22.9-55.3-39.3h0Z"/><path class="cls-1" d="m98.59,244.96c.3-.3.7-.5,1-.7v-21.5h4v22.9c-6.1,5.9-13.5,9.1-22,9.6-8.8.5-16.6-1.9-23.5-7-3.1-2.3-5.9-5.2-8.3-8.7-3.3-4.8-5.3-10-5.9-15.6-.5-4-.3-8.1.5-12.1,1.2-5.9,3.7-11.1,7.7-15.7,2.7-3.2,5.8-5.8,9.3-7.9,4.6-2.8,9.6-4.4,15-4.8,1.8-.1,3.7-.1,5.7-.1,8.3.5,15.5,3.6,21.7,9.2l.1.1-3,2.7c-5.1-4.6-11.1-7.2-17.9-7.9-7.9-.8-15,1-21.3,5.4-2.3,1.6-4.4,3.5-6.4,5.8-1.3,1.5-2.4,3-3.3,4.6-3.1,5.4-4.5,11.3-4.2,17.8.4,7.8,3.3,14.5,8.5,20.1,7,7.4,15.7,10.8,26,10,5.6-.4,10.7-2.2,15.4-5.3.1-.3.4-.6.9-.9h0Z"/><path class="cls-1" d="m197.49,245.16c-4.1-4.8-6.3-10.2-6.7-16.3-.1-1.9-.1-3.8.2-5.6.5-4.1,1.9-8,4.2-11.6,2-3,4.4-5.5,7.2-7.6,3.8-2.8,8-4.4,12.6-4.9,8.6-1,16.2,1.4,22.5,7.1l-2.4,2.1c-4.1-3.7-9-5.8-14.5-6.2-6.7-.5-12.6,1.4-17.7,5.6-4.4,3.6-7.1,8.1-8.4,13.4-.4,1.8-.6,3.7-.6,5.6-.1,7.5,2.8,13.8,8.5,18.9,2.8,2.5,5.9,4.2,9.4,5.2,1.8.5,3.6.8,5.6.9,6.5.3,12.6-1.8,17.9-6.2,0,0,.1.1.2.1l2.1,1.9c-4.8,4.4-10.4,6.8-17,7.2v3.5c2.2.2,4.2,1,5.8,2.4,2.4,2.1,3.6,4.7,3.6,7.7,0,2-.5,3.8-1.5,5.4-.7,1.2-1.7,2.2-2.9,3-1.1.8-2.4,1.3-3.8,1.6-3.5.7-6.7-.2-9.6-2.8l1.8-1.6c.9.9,1.9,1.5,3,1.9s2.1.6,3.2.5c1.6-.1,3.1-.7,4.3-1.8,1.8-1.5,2.7-3.4,2.8-5.6.1-1.5-.2-3-.9-4.3-.7-1.4-1.8-2.5-3.2-3.3-1.7-.9-3.5-1.2-5.5-.8l-.1-5.8c-8-.1-14.8-3.4-20.1-9.6h0Z"/><path class="cls-1" d="m251.79,247.76c-6.6-5.9-9.7-13.4-9.3-22.4.2-5.3,1.8-10.1,4.8-14.4,2.1-3.1,4.8-5.7,8-7.8,3.8-2.5,8-3.9,12.6-4.3v3.1c-6.8.8-12.4,3.9-16.8,9.2-2.5,3-4.1,6.3-5,9.9-.4,1.7-.6,3.6-.6,5.6,0,8.1,3.2,14.7,9.7,19.9,3.7,2.9,7.9,4.6,12.6,5.1v3.1c-6-.4-11.4-2.8-16-7h0Z"/><path class="cls-1" d="m380.09,203.36c.7.9,1.2,1.9,1.6,3v.1l-2.7,1h0c-1.1-2.7-3-4.4-5.6-5.2-1.5-.5-3-.5-4.6-.1-1.5.4-2.7,1.1-3.8,2.2-1.2,1.2-2,2.6-2.3,4.3s-.2,3.3.4,4.8,1.6,2.9,3,4c1.3,1,2.7,1.9,4,2.6,0,0,1.2.5,3.5,1.4,1.8.7,3.5,1.6,5,2.7,1.8,1.2,3.3,2.4,4.4,3.7,2.4,2.6,3.8,5.7,4.1,9.4.4,4.1-.7,7.9-3.2,11.2-2.2,2.9-4.9,4.9-8.4,5.8-1.8.5-3.6.7-5.6.6-5.1-.3-9.3-2.7-12.4-7.1-1.4-2-2.3-4.1-2.6-6.5l2.9-1c.6,3.9,2.5,7,5.6,9.2,2,1.4,4.2,2.2,6.5,2.4,4.2.3,7.7-1.1,10.6-4.1,2.2-2.2,3.4-4.9,3.6-8,.2-2.6-.3-4.9-1.4-7-.8-1.5-1.9-2.9-3.6-4.4-2.3-2-4.8-3.5-7.6-4.5-2.9-1-5.4-2.4-7.5-4-3.6-2.8-5.2-6.4-4.7-10.9.2-2.2,1.1-4.2,2.7-6,2-2.2,4.4-3.6,7.4-3.9,3.2-.4,5.9.4,8.3,2.2,1,.7,1.8,1.4,2.4,2.1h0Z"/><path class="cls-1" d="m283.69,205.76c-3-1.9-6.3-3.1-10-3.6v-3.1c4.8.4,9.2,2.1,13.2,5.1,3.5,2.5,6.2,5.7,8.3,9.5,1.5,2.7,2.5,5.6,2.9,8.6.3,1.8.4,3.7.4,5.6-.1,4.9-1.4,9.5-4,13.7-2,3.3-4.8,6.2-8.2,8.6-3.8,2.7-8,4.2-12.7,4.7v-3.1h.2c6.5-1,11.9-4.1,16.1-9.2,2.7-3.4,4.4-7.1,5.1-11.2.8-4.8.3-9.3-1.4-13.6-.7-1.7-1.6-3.4-2.7-4.9-2-3-4.4-5.3-7.2-7.1h0Z"/><path class="cls-1" d="m127.79,199.56h3.1l9,25h-3.2s0-.1-.1-.1l-7.4-20.1-8.3,22.9,19.8-.1h.1l1.1,3.1h-22.2s0,.1-.1.1l-8.8,23.8c0,.1-.1.2-.1.2h-3.3v-.1l20-54.6"/><path class="cls-1" d="m171.99,234.86c-.1,0-.1.1-.1.2l12.3,19.1c.1.2.2.3.2.3h-3.8l-12.1-18.8c-.1-.1-.2-.2-.4-.2h-9.9v19h-3.1v-54.8h12.4c1.6,0,2.9.1,3.9.4,3.5.8,6.5,2.6,9.1,5.2,3,3.1,4.6,6.8,4.9,11.1.3,4-.7,7.7-2.9,11-2.7,3.7-6.2,6.2-10.5,7.5h0Zm5.9-27.7c-2.3-2.3-5-3.7-8-4.2-.8-.1-2.7-.2-5.6-.2-2,0-3.9,0-5.9.1-.1,0-.1.1-.1.1v29.3c5.7.1,9.3.1,10.7-.1,2.4-.2,4.5-.9,6.4-2.2,4.2-2.8,6.4-6.5,6.8-11.2.2-2,0-3.9-.5-5.6-.8-2.2-2-4.2-3.8-6h0Z"/><path class="cls-1" d="m308.29,204.66v49.7h-3.1v-54.8h3.9l36.4,50.9v-50.9h3.1v54.7h-4.8s0-.1-.1-.2l-35.4-49.4h0Z"/><path class="cls-1" d="m139.59,233.06c0-.1-.1-.2-.1-.2h3.2s0,.1.1.1l7.8,21.4h-3.2l-7.8-21.3h0Z"/><rect class="cls-1" x="241.69" y="124.46" width="2.4" height="40.5"/><rect class="cls-1" x="241.69" y="167.46" width="2.4" height="3.9"/><rect class="cls-1" x="1.09" y="97.06" width="4.2" height="74.1"/><path class="cls-1" d="m72.79,69.06v23.5h11.8v-1.3h-10.4v-.1l-.1-9.3v-.3h10.4v-1.3h-10.4v-9.7h10.5v-1.4l-11.8-.1h0Z"/></g></g></svg>